<?xml version="1.0" encoding="UTF-8"?>
<svg xmlns="http://www.w3.org/2000/svg" viewBox="0 0 704 704" width="512" height="512">
  <rect x="24" y="24" width="656" height="656" rx="96" fill="#f5f1e8"/>
  <rect x="110" y="170" width="480" height="300" rx="16" fill="none" stroke="#a83228" stroke-width="12"/>
  <path d="M260 240 L400 320 L260 400 Z" fill="#a83228"/>
  <g fill="#5a1810">
    <rect x="130" y="190" width="26" height="20" rx="3"/><rect x="130" y="230" width="26" height="20" rx="3"/>
    <rect x="130" y="270" width="26" height="20" rx="3"/><rect x="130" y="310" width="26" height="20" rx="3"/>
    <rect x="130" y="350" width="26" height="20" rx="3"/><rect x="130" y="390" width="26" height="20" rx="3"/>
    <rect x="544" y="190" width="26" height="20" rx="3"/><rect x="544" y="230" width="26" height="20" rx="3"/>
    <rect x="544" y="270" width="26" height="20" rx="3"/><rect x="544" y="310" width="26" height="20" rx="3"/>
    <rect x="544" y="350" width="26" height="20" rx="3"/><rect x="544" y="390" width="26" height="20" rx="3"/>
  </g>
  <rect x="180" y="510" width="340" height="14" rx="7" fill="#d46a5c" opacity="0.4"/>
  <rect x="210" y="504" width="48" height="26" rx="4" fill="#a83228"/>
</svg>
